Coordinates
version=1
nRows=9
nColumns=24
inDegrees=yes

Units are S.I. units (second, meters, Newtons, ...)
Angles are in degrees.

endheader
time	pelvis_tilt	pelvis_list	pelvis_rotation	pelvis_tx	pelvis_ty	pelvis_tz	hip_flexion_r	hip_adduction_r	hip_rotation_r	knee_angle_r	ankle_angle_r	subtalar_angle_r	mtp_angle_r	hip_flexion_l	hip_adduction_l	hip_rotation_l	knee_angle_l	ankle_angle_l	subtalar_angle_l	mtp_angle_l	lumbar_extension	lumbar_bending	lumbar_rotation
      0.52100000	      0.05795251	      0.64725649	      3.66314612	     -0.72180425	      0.98804215	      0.28891574	     22.91163539	      1.73888391	     -4.05461237	      0.32646902	      0.24681958	    -15.82162564	      0.00455839	    -17.72894929	      3.76842833	      1.32667103	     -3.36711804	      8.91920537	     -2.45765166	      0.92268237	     -3.96405291	      1.51089161	     -3.27053896
      0.52516667	     -0.00959137	      0.61782277	      3.70936185	     -0.71560613	      0.98740409	      0.28910899	     22.92269345	      1.82406217	     -4.09789162	      0.26198623	      0.06915646	    -16.13651184	      0.44997631	    -17.77261487	      3.69605009	      1.23722562	     -3.84263267	      8.82193866	     -2.41685318	      5.01395685	     -3.82650289	      1.55399781	     -3.27856841
      0.52933333	     -0.01674636	      0.57266752	      3.75396343	     -0.70935119	      0.98688841	      0.28925545	     22.89455249	      1.91712660	     -4.24644669	      0.08458319	     -0.11416378	    -16.20972072	      0.45281242	    -17.89744319	      3.60898906	      1.21723925	     -4.29334586	      8.72687370	     -2.42860909	      5.02380097	     -3.75310042	      1.63287593	     -3.32240335
      0.53350000	     -0.04557446	      0.51851924	      3.80575398	     -0.70307119	      0.98639715	      0.28941638	     22.87965596	      2.01712652	     -4.32674144	     -0.12650976	     -0.39892273	    -16.39600665	      0.47066135	    -17.96620036	      3.50733235	      1.18762120	     -4.80540474	      8.62686728	     -2.36391835	      5.05928991	     -3.66417207	      1.72348546	     -3.39772935
      0.53766667	     -0.07636299	      0.46331806	      3.83711059	     -0.69674157	      0.98594565	      0.28959891	     22.86873944	      2.12487725	     -4.35449162	     -0.39498862	     -0.72512654	    -16.68785218	      0.50074021	    -18.02140431	      3.41011928	      1.12805237	     -5.33998167	      8.49475199	     -2.30822741	      5.11620812	     -3.54680262	      1.82094040	     -3.44353336
      0.54183333	     -0.12095731	      0.40304230	      3.84951523	     -0.69040387	      0.98552489	      0.28986158	     22.85134242	      2.25365882	     -4.20753320	     -0.66904723	     -1.09203670	    -17.28220108	      0.59787523	    -18.01416661	      3.30700555	      1.00341826	     -5.96284150	      8.37412764	     -2.20523608	      5.29579182	     -3.42797798	      1.89101537	     -3.49714884
      0.54600000	     -0.13826176	      0.32943283	      3.85985729	     -0.68400836	      0.98518842	      0.29009504	     22.81435004	      2.39124528	     -4.12551729	     -0.99991518	     -1.54087568	    -17.77386850	      0.72854620	    -18.04079327	      3.19081278	      0.91781444	     -6.57170231	      8.17347310	     -2.16151299	      5.55627537	     -3.32769857	      2.00219754	     -3.49524996
      0.55016667	     -0.16739603	      0.24560846	      3.87851546	     -0.67755573	      0.98490090	      0.29028713	     22.81492927	      2.52261517	     -4.16079913	     -1.41620150	     -1.99520811	    -17.96746842	      0.76061665	    -18.05066882	      3.06494032	      0.88940172	     -7.18369540	      7.88884641	     -2.17678151	      5.63711651	     -3.20895196	      2.13287369	     -3.48096999
      0.55433333	     -0.22510879	      0.16936729	      3.87149892	     -0.67112622	      0.98461227	      0.29058857	     22.80869763	      2.67265200	     -3.93742390	     -1.78770925	     -2.53947355	    -18.70958713	      0.89939753	    -17.95711127	      2.94452194	      0.74678038	     -7.93644375	      7.68689846	     -2.06632760	      5.97732206	     -3.05467509	      2.23400089	     -3.49211617
